# xmcd
#
# Track frame offsets:
#	150
#	15902
#	30229
#	42531
#	61208
#	78985
#	94587
#	109139
#	129391
#	132243
#	147620
#	163372
#	180324
#	193526
#	210178
#
# Disc length: 2982 seconds
#
# Revision: 1
# Processed by: cddbd v1.5.2PL0 Copyright (c) Steve Scherf et al.
# Submitted via: audiograbber 1.83.01
#
DISCID=c00ba40f
DTITLE=Dion - Son Of Skip James
DYEAR=1900
DGENRE=blues
TTITLE0=Nadine
TTITLE1=My Babe
TTITLE2=Hoodoo Man Blues
TTITLE3=Drop Down Mama
TTITLE4=Hoochie Coochie Man
TTITLE5=Baby I'm In The Mood
TTITLE6=I'm A Guitar King
TTITLE7=The Thunderer
TTITLE8=Interlude (Dylan Story)
TTITLE9=Son Of Skip James
TTITLE10=Preachin' Blues
TTITLE11=If I Had Possession Over Judgement Day
TTITLE12=Devil Got My Woman
TTITLE13=I Just Want To Make Love To You
TTITLE14=Dust My Broom
EXTD=
EXTT0=
EXTT1=
EXTT2=
EXTT3=
EXTT4=
EXTT5=
EXTT6=
EXTT7=
EXTT8=
EXTT9=
EXTT10=
EXTT11=
EXTT12=
EXTT13=
EXTT14=
PLAYORDER=
